# xmcd CD database file
#
# Track frame offsets:
#	150
#	15100
#	31002
#	52047
#	76715
#	94482
#	118792
#	140855
#	154108
#	174121
#	195775
#	223074
#
# Disc length: 3233 seconds
#
# Revision: 0
# Processed by: cddbd v1.5.2PL0 Copyright (c) Steve Scherf et al.
# Submitted via: CDex 1.70beta2
#
DISCID=900c9f0c
DTITLE=Eric Legnini - Big Bougaloo
DYEAR=2007
DGENRE=Jazz
TTITLE0=Funky Dilla
TTITLE1=Nightfall
TTITLE2=Trastevere
TTITLE3=Big Boogaloo
TTITLE4=Reflection
TTITLE5=Where is the love
TTITLE6=Smoke Gets In Your Eyes
TTITLE7=Honky Cookie
TTITLE8=Goin'Out Of My Head
TTITLE9=Mojito Forever
TTITLE10=Soul Brother
TTITLE11=The Preacher
EXTD=YEAR: 2007
EXTT0=
EXTT1=
EXTT2=
EXTT3=
EXTT4=
EXTT5=
EXTT6=
EXTT7=
EXTT8=
EXTT9=
EXTT10=
EXTT11=
PLAYORDER=
